<svg width="34" height="19" viewBox="0 0 34 19" fill="none" xmlns="http://www.w3.org/2000/svg">
<path d="M0.115234 0.999999C0.115234 0.447715 0.56295 0 1.11523 0H32.5292C33.0815 0 33.5292 0.447715 33.5292 1V2.35294C33.5292 2.90523 33.0815 3.35294 32.5292 3.35294H1.11523C0.562947 3.35294 0.115234 2.90523 0.115234 2.35294V0.999999Z" fill="#39515E"/>
<path d="M0.115234 8.82353C0.115234 8.27125 0.56295 7.82353 1.11523 7.82353H32.5292C33.0815 7.82353 33.5292 8.27125 33.5292 8.82353V10.1765C33.5292 10.7288 33.0815 11.1765 32.5292 11.1765H1.11523C0.562947 11.1765 0.115234 10.7288 0.115234 10.1765V8.82353Z" fill="#39515E"/>
<path d="M0.115234 16.6471C0.115234 16.0948 0.56295 15.6471 1.11523 15.6471H22.7495C23.3018 15.6471 23.7495 16.0948 23.7495 16.6471V18C23.7495 18.5523 23.3018 19 22.7495 19H1.11524C0.56295 19 0.115234 18.5523 0.115234 18V16.6471Z" fill="#39515E"/>
</svg>
